<svg width="32" height="32" viewBox="0 0 32 32" fill="none" xmlns="http://www.w3.org/2000/svg">
<path d="M16.0001 2.89159C20.2411 2.89159 20.8194 2.89159 22.5544 2.89159C24.0966 2.89159 24.8677 3.27713 25.446 3.46991C26.2171 3.85545 26.7954 4.04822 27.3737 4.62654C27.952 5.20486 28.3376 5.78318 28.5303 6.55427C28.7231 7.13258 28.9159 7.90367 29.1086 9.44585C29.1086 11.1808 29.1086 11.5664 29.1086 16.0001C29.1086 20.4339 29.1086 20.8194 29.1086 22.5544C29.1086 24.0966 28.7231 24.8677 28.5303 25.446C28.1448 26.2171 27.952 26.7954 27.3737 27.3737C26.7954 27.952 26.2171 28.3376 25.446 28.5303C24.8677 28.7231 24.0966 28.9159 22.5544 29.1086C20.8194 29.1086 20.4339 29.1086 16.0001 29.1086C11.5664 29.1086 11.1808 29.1086 9.44585 29.1086C7.90367 29.1086 7.13258 28.7231 6.55427 28.5303C5.78318 28.1448 5.20486 27.952 4.62654 27.3737C4.04822 26.7954 3.66268 26.2171 3.46991 25.446C3.27713 24.8677 3.08436 24.0966 2.89159 22.5544C2.89159 20.8194 2.89159 20.4339 2.89159 16.0001C2.89159 11.5664 2.89159 11.1808 2.89159 9.44585C2.89159 7.90367 3.27713 7.13258 3.46991 6.55427C3.85545 5.78318 4.04822 5.20486 4.62654 4.62654C5.20486 4.04822 5.78318 3.66268 6.55427 3.46991C7.13258 3.27713 7.90367 3.08436 9.44585 2.89159C11.1808 2.89159 11.7591 2.89159 16.0001 2.89159ZM16.0001 0C11.5664 0 11.1808 0 9.44585 0C7.7109 0 6.55427 0.385546 5.5904 0.771091C4.62654 1.15664 3.66268 1.73495 2.69882 2.69882C1.73495 3.66268 1.34941 4.43377 0.771091 5.5904C0.385546 6.55427 0.192773 7.7109 0 9.44585C0 11.1808 0 11.7591 0 16.0001C0 20.4339 0 20.8194 0 22.5544C0 24.2893 0.385546 25.446 0.771091 26.4098C1.15664 27.3737 1.73495 28.3376 2.69882 29.3014C3.66268 30.2653 4.43377 30.6508 5.5904 31.2292C6.55427 31.6147 7.7109 31.8075 9.44585 32.0002C11.1808 32.0002 11.7591 32.0002 16.0001 32.0002C20.2411 32.0002 20.8194 32.0002 22.5544 32.0002C24.2893 32.0002 25.446 31.6147 26.4098 31.2292C27.3737 30.8436 28.3376 30.2653 29.3014 29.3014C30.2653 28.3376 30.6508 27.5665 31.2292 26.4098C31.6147 25.446 31.8075 24.2893 32.0002 22.5544C32.0002 20.8194 32.0002 20.2411 32.0002 16.0001C32.0002 11.7591 32.0002 11.1808 32.0002 9.44585C32.0002 7.7109 31.6147 6.55427 31.2292 5.5904C30.8436 4.62654 30.2653 3.66268 29.3014 2.69882C28.3376 1.73495 27.5665 1.34941 26.4098 0.771091C25.446 0.385546 24.2893 0.192773 22.5544 0C20.8194 0 20.4339 0 16.0001 0Z" fill="#FEFEFE"/>
<path d="M16.0001 7.7109C11.3736 7.7109 7.7109 11.3736 7.7109 16.0001C7.7109 20.6267 11.3736 24.2893 16.0001 24.2893C20.6267 24.2893 24.2893 20.6267 24.2893 16.0001C24.2893 11.3736 20.6267 7.7109 16.0001 7.7109ZM16.0001 21.3977C13.1085 21.3977 10.6025 19.0845 10.6025 16.0001C10.6025 13.1085 12.9158 10.6025 16.0001 10.6025C18.8917 10.6025 21.3977 12.9158 21.3977 16.0001C21.3977 18.8917 18.8917 21.3977 16.0001 21.3977Z" fill="#FEFEFE"/>
<path d="M24.4821 9.44585C25.5468 9.44585 26.4098 8.58278 26.4098 7.51813C26.4098 6.45348 25.5468 5.5904 24.4821 5.5904C23.4175 5.5904 22.5544 6.45348 22.5544 7.51813C22.5544 8.58278 23.4175 9.44585 24.4821 9.44585Z" fill="#FEFEFE"/>
</svg>
