<svg width="68" height="47" viewBox="0 0 68 47" fill="none" xmlns="http://www.w3.org/2000/svg">
<path fill-rule="evenodd" clip-rule="evenodd" d="M12.7217 10.6654C13.8131 10.4016 14.9289 10.2689 16.048 10.2695C24.9107 10.2695 32.0932 18.4779 32.0932 28.5993C32.0932 38.7237 24.9107 46.9321 16.048 46.9321C7.18533 46.9321 0 38.7268 0 28.5993C0 28.3031 0.00566667 28.0039 0.0198333 27.7077H0C0 12.4304 10.88 0 24.2533 0V6.15324C19.9155 6.15324 15.9148 7.83964 12.7217 10.6654ZM48.6313 10.6654C49.7023 10.4055 50.813 10.2695 51.952 10.2695C60.8147 10.2695 68 18.4779 68 28.5993C68 38.7237 60.8147 46.9321 51.952 46.9321C43.0893 46.9321 35.9068 38.7268 35.9068 28.5993C35.9068 28.3031 35.9125 28.0039 35.9267 27.7077H35.9068C35.9068 12.4304 46.7868 0 60.1602 0V6.15324C55.8195 6.15324 51.8245 7.83964 48.6313 10.6654Z" fill="#F1C76F"/>
</svg>
