<svg width="43" height="32" viewBox="0 0 43 32" fill="none" xmlns="http://www.w3.org/2000/svg">
<path d="M41.9248 4.74674C41.3873 2.7922 40.0436 1.3961 38.1624 0.837659C34.9374 4.99284e-07 21.2311 0 21.2311 0C21.2311 0 7.79374 4.99284e-07 4.3 0.837659C2.41876 1.3961 1.07499 2.7922 0.53749 4.74674C-8.20958e-06 8.37659 0 15.6363 0 15.6363C0 15.6363 8.16953e-06 22.896 0.806255 26.5259C1.34375 28.4804 2.68748 29.8765 4.56872 30.4349C7.79371 31.2726 21.4999 31.2726 21.4999 31.2726C21.4999 31.2726 34.9373 31.2726 38.4311 30.4349C40.3123 29.8765 41.6561 28.4804 42.1936 26.5259C42.9999 22.896 42.9998 15.6363 42.9998 15.6363C42.9998 15.6363 42.9998 8.37659 41.9248 4.74674ZM17.1999 22.3376V8.93503L28.4874 15.6363L17.1999 22.3376Z" fill="#FEFEFE"/>
</svg>
